<?xml version="1.0" encoding="utf-8"?>
<!-- Generator: Adobe Illustrator 19.2.1, SVG Export Plug-In . SVG Version: 6.00 Build 0)  -->
<svg version="1.1" id="Layer_1" xmlns="http://www.w3.org/2000/svg" xmlns:xlink="http://www.w3.org/1999/xlink" x="0px" y="0px"
	 viewBox="0 0 600 482" style="enable-background:new 0 0 600 482;" xml:space="preserve">
<style type="text/css">
	.st0{fill:#FFFFFF;}
</style>
<g>
	<path class="st0" d="M47.3,438.1c0-9.4-7-17.4-19.5-17.4c-10.4,0-17.2,8.6-17.2,8.6c-0.6,0.7-0.4,1.7,0.1,2.3l4.2,4.2
		c0.7,0.7,1.7,0.7,2.4,0c2-2.2,5.6-5.2,9.8-5.2c6.3,0,9.3,4,9.3,7.9c0,3-1.7,6.4-4.5,9.7C26,456,15,470.4,9.2,477.3v2
		c0,0.9,0.7,1.7,1.7,1.7h34.4c0.9,0,1.7-0.8,1.7-1.7v-6c0-0.9-0.8-1.7-1.7-1.7H26.4c4.6-5.8,11.3-14.1,15-19.4
		C44.8,447.4,47.3,443.8,47.3,438.1z"/>
	<path class="st0" d="M27.8,211.3c-10.4,0-17.2,8.6-17.2,8.6c-0.6,0.7-0.4,1.7,0.1,2.3l4.2,4.2c0.7,0.7,1.7,0.7,2.4,0
		c2-2.2,5.6-5.2,9.8-5.2c6.3,0,9.3,4,9.3,7.9c0,3-1.7,6.4-4.5,9.7C26,246.5,15,260.8,9.2,267.8v2c0,0.9,0.7,1.7,1.7,1.7h34.4
		c0.9,0,1.7-0.8,1.7-1.7v-6c0-0.9-0.8-1.7-1.7-1.7H26.4c4.6-5.8,11.3-14.1,15-19.4c3.4-4.9,5.8-8.5,5.8-14.1
		C47.3,219.2,40.3,211.3,27.8,211.3z"/>
	<path class="st0" d="M31.2,1c-0.3-0.5-0.6-1-1.5-1h-0.9c-0.8,0-1.2,0.4-1.5,1L0.2,59.7C-0.3,60.8,0.3,62,1.7,62h7.6
		c1.4,0,2.2-0.9,2.5-1.7l4.3-9.4h26.1l4.3,9.4c0.6,1.2,1.2,1.7,2.5,1.7h7.6c1.3,0,2-1.1,1.5-2.3L31.2,1z M20.3,41.1l8.6-19.2h0.3
		l8.7,19.2H20.3z"/>
	<path class="st0" d="M232.9,451.3c0-19.1-8-30.6-22-30.6s-22,11.4-22,30.6s8,30.6,22,30.6S232.9,470.4,232.9,451.3z M210.9,471.6
		c-6.7,0-10.6-7.2-10.6-20.3c0-12.9,3.8-20.3,10.6-20.3c6.7,0,10.6,7.3,10.6,20.3C221.4,464.3,217.6,471.6,210.9,471.6z"/>
	<path class="st0" d="M230.3,212.1H194c-0.9,0-1.7,0.8-1.7,1.7v6.1c0,0.9,0.8,1.7,1.7,1.7h23l-22.7,47.3v1c0,1.4,1.1,1.7,2.2,1.7
		h6.5c1.5,0,2.4-1,3-2.4l26-54.7v-0.6C232,212.9,231.2,212.1,230.3,212.1z"/>
	<path class="st0" d="M235.5,31.7h-16.8c-1,0-1.7,0.7-1.7,1.7v6.9c0,0.9,0.7,1.6,1.7,1.6h7v7.4c-1.7,0.7-5.5,2.2-10.4,2.2
		c-11,0-19.6-9.2-19.6-20c0-10.9,8.6-20.3,19.6-20.3c4.8,0,9.4,1.7,13.2,5.1c0.8,0.7,1.6,0.7,2.3,0l5.4-5.7c0.7-0.7,0.6-1.7-0.1-2.4
		C230.1,3.1,222.6,0,214.7,0c-17.4,0-31.3,14.1-31.3,31.5s14,31.3,31.3,31.3c12.7,0,21.6-5.7,21.6-5.7c0.3-0.3,0.7-0.7,0.7-1.4V33.3
		C237.1,32.5,236.4,31.7,235.5,31.7z"/>
	<path class="st0" d="M398.5,421.6h-6.1l-12.6,10.6c-0.3,0.3-0.5,0.9-0.4,1.6l0.5,4.3c0.1,0.8,1,1.3,1.7,1.1l7.7-1.7v41.8
		c0,0.9,0.7,1.7,1.7,1.7h7.5c0.9,0,1.6-0.8,1.6-1.7v-56C400.1,422.4,399.4,421.6,398.5,421.6z"/>
	<path class="st0" d="M411.7,210.4h-38.1c-1,0-1.7,0.8-1.7,1.7v7.2c0,0.9,0.7,1.7,1.7,1.7h13.4v49c0,0.9,0.8,1.7,1.7,1.7h8.1
		c0.9,0,1.7-0.8,1.7-1.7v-49h13.4c1,0,1.7-0.8,1.7-1.7V212C413.4,211.2,412.7,210.4,411.7,210.4z"/>
	<path class="st0" d="M392.6,52.8c-5.7,0-12.7-5.2-13.2-5.4c-0.8-0.6-2.3-0.6-3,0.6l-3.1,5.4c-0.8,1.4-0.3,1.8,0.4,2.6
		c1.7,1.7,8.2,6.8,19.2,6.8c12.3,0,20.1-8.3,20.1-17.3c0-11.3-9.8-16.3-18.2-19.7c-7.1-2.9-10.3-5.7-10.3-9.8c0-2.8,2.7-6.1,7.7-6.1
		c4.8,0,11.4,4.4,12.1,4.8c1,0.7,2.4,0,3.1-1l3.3-5c0.6-0.9,0.3-2.4-0.5-2.9c-1.7-1.3-8.6-5.8-17.5-5.8c-13.9,0-19.6,9-19.6,16.8
		c0,10.3,8.2,15.5,16.4,18.9c7.3,3,11.1,6,11.1,10.5C400.6,49.8,397.2,52.8,392.6,52.8z"/>
	<path class="st0" d="M595.1,461.9c0-12.5-9.1-18.9-17.8-18.9c-4.1,0-8.5,1.6-10,2.4c2.7-9.6,15.1-15.5,19.2-16.8
		c1.7-0.5,2-1.5,1.6-2.5l-2-5.2c-0.3-1.1-1.2-1.6-2.4-1.2c-7.5,2.4-29.1,12.6-29.1,38.1c0,13.1,7.1,24.1,20.8,24.1
		C586.1,481.9,595.1,472.9,595.1,461.9z M575.3,471.9c-7.1,0-10.2-6.9-10.2-12.8c1-3.1,4.4-7.6,10.1-7.6c5.6,0,10,4.6,10,10.2
		C585.2,467.2,580.8,471.9,575.3,471.9z"/>
	<path class="st0" d="M598.3,210.4h-8c-1,0-1.7,0.8-1.7,1.7v23.1h-28.5V212c0-0.9-0.7-1.7-1.7-1.7h-8.1c-0.9,0-1.7,0.8-1.7,1.7v57.8
		c0,0.9,0.8,1.7,1.7,1.7h8.1c1,0,1.7-0.8,1.7-1.7v-24.1h28.5v24.1c0,0.9,0.7,1.7,1.7,1.7h8c0.9,0,1.7-0.8,1.7-1.7V212
		C600,211.2,599.2,210.4,598.3,210.4z"/>
	<path class="st0" d="M555.3,11.3h13.4v49c0,0.9,0.8,1.7,1.7,1.7h8.1c0.9,0,1.7-0.8,1.7-1.7v-49h13.4c1,0,1.7-0.8,1.7-1.7V2.5
		c0-0.9-0.7-1.7-1.7-1.7h-38.1c-1,0-1.7,0.8-1.7,1.7v7.2C553.6,10.6,554.3,11.3,555.3,11.3z"/>
</g>
</svg>
