<?xml version="1.0" encoding="utf-8"?>
<!-- Generator: Adobe Illustrator 18.0.0, SVG Export Plug-In . SVG Version: 6.00 Build 0)  -->
<!DOCTYPE svg PUBLIC "-//W3C//DTD SVG 1.1//EN" "http://www.w3.org/Graphics/SVG/1.1/DTD/svg11.dtd">
<svg version="1.1" id="Layer_1" xmlns="http://www.w3.org/2000/svg" xmlns:xlink="http://www.w3.org/1999/xlink" x="0px" y="0px"
	 viewBox="0 0 600 482" enable-background="new 0 0 600 482" xml:space="preserve">
<g>
	<path fill="#E8C323" d="M47.2724,438.1491c0-9.4282-6.9837-17.3722-19.4675-17.3722c-10.3883,0-17.1977,8.5552-17.1977,8.5552
		c-0.6112,0.6984-0.4366,1.7459,0.0872,2.2697l4.1903,4.1903c0.6985,0.6983,1.6587,0.6983,2.357,0
		c2.0079-2.1825,5.5872-5.1505,9.7775-5.1505c6.2854,0,9.2536,4.0156,9.2536,7.9441c0,2.9682-1.7461,6.3728-4.4523,9.6902
		c-5.849,7.7695-16.8485,22.0863-22.6101,29.0703v2.0079c0,0.8729,0.6984,1.6587,1.6587,1.6587h34.3953
		c0.8731,0,1.6587-0.7857,1.6587-1.6587v-6.0236c0-0.873-0.7856-1.6587-1.6587-1.6587H26.4082
		c4.6269-5.849,11.2614-14.0551,15.0154-19.3803C44.8282,447.4027,47.2724,443.8235,47.2724,438.1491z"/>
	<path fill="#E8C323" d="M27.8049,211.2614c-10.3883,0-17.1977,8.5552-17.1977,8.5552c-0.6112,0.6984-0.4366,1.7459,0.0872,2.2697
		l4.1903,4.1903c0.6985,0.6984,1.6587,0.6984,2.357,0c2.0079-2.1824,5.5872-5.1505,9.7775-5.1505
		c6.2854,0,9.2536,4.0157,9.2536,7.9441c0,2.9682-1.7461,6.3728-4.4523,9.6901c-5.849,7.7695-16.8485,22.0863-22.6101,29.0703
		v2.0078c0,0.873,0.6984,1.6587,1.6587,1.6587h34.3953c0.8731,0,1.6587-0.7857,1.6587-1.6587v-6.0236
		c0-0.8729-0.7856-1.6587-1.6587-1.6587H26.4082c4.6269-5.849,11.2614-14.0551,15.0154-19.3801
		c3.4046-4.8889,5.8488-8.468,5.8488-14.1424C47.2724,219.2055,40.2887,211.2614,27.8049,211.2614z"/>
	<path fill="#E8C323" d="M31.1656,0.9602C30.9038,0.4364,30.5547,0,29.6815,0h-0.8729c-0.7856,0-1.2221,0.4364-1.4841,0.9602
		L0.1749,59.7118c-0.5238,1.1349,0.1746,2.2698,1.4841,2.2698h7.5949c1.3967,0,2.1825-0.8729,2.5316-1.7461l4.2775-9.4282h26.1022
		l4.2775,9.4282c0.6111,1.2223,1.2223,1.7461,2.5316,1.7461h7.5951c1.3093,0,2.0079-1.1349,1.4839-2.2698L31.1656,0.9602z
		 M20.3408,41.1173l8.5552-19.2055h0.2618l8.7298,19.2055H20.3408z"/>
	<path fill="#E8C323" d="M232.868,451.3312c0-19.1183-8.0314-30.5543-21.9991-30.5543s-21.9991,11.436-21.9991,30.5543
		s8.0315,30.5544,21.9991,30.5544S232.868,470.4496,232.868,451.3312z M210.8689,471.5843c-6.722,0-10.5631-7.2457-10.5631-20.2531
		c0-12.9201,3.8411-20.2532,10.5631-20.2532c6.7219,0,10.5631,7.3331,10.5631,20.2532
		C221.4319,464.3386,217.5908,471.5843,210.8689,471.5843z"/>
	<path fill="#E8C323" d="M230.3363,212.1343h-36.316c-0.8729,0-1.6587,0.7858-1.6587,1.6587v6.1108
		c0,0.873,0.7858,1.6587,1.6587,1.6587h23.0467l-22.6975,47.3156v0.9603c0,1.3967,1.1349,1.6587,2.1824,1.6587h6.46
		c1.4841,0,2.357-0.9603,2.9682-2.357l26.0148-54.7359v-0.6111C231.995,212.9201,231.2093,212.1343,230.3363,212.1343z"/>
	<path fill="#E8C323" d="M235.4873,31.6891h-16.7613c-0.9603,0-1.6587,0.6984-1.6587,1.6587v6.8965
		c0,0.8729,0.6983,1.5715,1.6587,1.5715h6.9837v7.4203c-1.7459,0.6984-5.4996,2.1825-10.3885,2.1825
		c-10.9995,0-19.6421-9.1664-19.6421-19.9913c0-10.9123,8.6426-20.2532,19.5549-20.2532c4.8013,0,9.4282,1.7459,13.1819,5.0633
		c0.7857,0.6984,1.5715,0.6984,2.2698,0l5.4124-5.6744c0.6983-0.6984,0.6111-1.7459-0.0872-2.4442
		C230.0747,3.0554,222.5672,0,214.7103,0c-17.3724,0-31.3401,14.0549-31.3401,31.5145s13.9677,31.2527,31.3401,31.2527
		c12.6582,0,21.6499-5.6742,21.6499-5.6742c0.3492-0.262,0.6984-0.6985,0.6984-1.3969V33.3478
		C237.0586,32.4748,236.3603,31.6891,235.4873,31.6891z"/>
	<path fill="#E8C323" d="M398.5161,421.6498h-6.1108l-12.571,10.5631c-0.3492,0.3492-0.5238,0.873-0.4366,1.5713l0.5239,4.2777
		c0.0872,0.7856,0.9602,1.3095,1.7459,1.1347l7.6823-1.6585v41.8158c0,0.8729,0.6983,1.6587,1.6587,1.6587h7.5075
		c0.8731,0,1.5715-0.7857,1.5715-1.6587v-56.0454C400.0876,422.4356,399.3893,421.6498,398.5161,421.6498z"/>
	<path fill="#E8C323" d="M411.6982,210.3885H373.549c-0.9603,0-1.6587,0.7856-1.6587,1.6585v7.1585
		c0,0.8729,0.6983,1.6587,1.6587,1.6587h13.3565v48.9743c0,0.873,0.7857,1.6587,1.6587,1.6587h8.1187
		c0.8731,0,1.6587-0.7857,1.6587-1.6587v-48.9743h13.3567c0.9603,0,1.6587-0.7857,1.6587-1.6587v-7.1585
		C413.3569,211.174,412.6586,210.3885,411.6982,210.3885z"/>
	<path fill="#E8C323" d="M392.6236,52.8153c-5.6744,0-12.7455-5.1505-13.1821-5.4124c-0.7856-0.6112-2.2697-0.6112-2.968,0.6111
		l-3.1428,5.4124c-0.7857,1.3967-0.3492,1.8333,0.4366,2.6188c1.7459,1.6587,8.2059,6.8093,19.2055,6.8093
		c12.309,0,20.0786-8.2933,20.0786-17.285c0-11.2614-9.7775-16.3247-18.2454-19.7293c-7.0711-2.881-10.3013-5.6744-10.3013-9.7775
		c0-2.7934,2.7064-6.1108,7.6823-6.1108c4.8015,0,11.436,4.3649,12.1346,4.8015c1.0475,0.6984,2.357,0,3.0554-1.0477l3.3172-4.9759
		c0.6111-0.8731,0.3494-2.357-0.5238-2.881C408.4246,4.5395,401.6152,0,392.7108,0c-13.8803,0-19.6421,8.9916-19.6421,16.7611
		c0,10.3013,8.2061,15.5391,16.4121,18.8565c7.3331,2.968,11.0869,6.0236,11.0869,10.4757
		C400.5677,49.8472,397.1631,52.8153,392.6236,52.8153z"/>
	<path fill="#E8C323" d="M595.1119,461.8943c0-12.4838-9.079-18.9437-17.8088-18.9437c-4.1029,0-8.4678,1.5713-9.9519,2.4442
		c2.7062-9.6028,15.1025-15.4518,19.2055-16.7611c1.6587-0.5239,2.0079-1.4841,1.5713-2.5318l-2.0079-5.1505
		c-0.3492-1.1349-1.2221-1.5715-2.4442-1.2221c-7.5077,2.4442-29.0703,12.5708-29.0703,38.0619
		c0,13.0947,7.0711,24.0944,20.777,24.0944C586.1201,481.8856,595.1119,472.8938,595.1119,461.8943z M575.2952,471.9335
		c-7.0711,0-10.2139-6.8965-10.2139-12.8327c0.9603-3.1428,4.3649-7.5949,10.1265-7.5949c5.5872,0,10.0393,4.6267,10.0393,10.2139
		C585.2471,467.2194,580.795,471.9335,575.2952,471.9335z"/>
	<path fill="#E8C323" d="M598.3417,210.3885h-8.0314c-0.9603,0-1.6587,0.7856-1.6587,1.6585v23.134h-28.4593v-23.134
		c0-0.873-0.6984-1.6585-1.6587-1.6585h-8.1187c-0.873,0-1.6587,0.7856-1.6587,1.6585v57.7915c0,0.873,0.7857,1.6587,1.6587,1.6587
		h8.1187c0.9603,0,1.6587-0.7857,1.6587-1.6587v-24.0944h28.4593v24.0944c0,0.873,0.6984,1.6587,1.6587,1.6587h8.0314
		c0.8724,0,1.6573-0.7847,1.6583-1.6571v-57.7947C599.999,211.1729,599.2141,210.3885,598.3417,210.3885z"/>
	<path fill="#E8C323" d="M555.3036,11.3486h13.3567v48.9743c0,0.8729,0.7857,1.6587,1.6587,1.6587h8.1187
		c0.8729,0,1.6587-0.7857,1.6587-1.6587V11.3486h13.3567c0.9601,0,1.6587-0.7856,1.6587-1.6587V2.5316
		c0-0.8729-0.6985-1.6587-1.6587-1.6587h-38.1494c-0.9601,0-1.6585,0.7857-1.6585,1.6587V9.69
		C553.6451,10.5631,554.3434,11.3486,555.3036,11.3486z"/>
</g>
</svg>
